# xmcd
#
# Track frame offsets:
#	150
#	9556
#	24538
#	40205
#	52026
#	63036
#	76825
#	84962
#	95954
#	104546
#	115771
#	127417
#	138384
#	151693
#	165475
#	177466
#	187837
#	199541
#
# Disc length: 2812 seconds
#
# Revision: 1
# Processed by: cddbd v1.5.2PL0 Copyright (c) Steve Scherf et al.
# Submitted via: audiograbber 1.83.01
#
DISCID=e60afa12
DTITLE=Various Artist - DESPERADO
DYEAR=1999
DGENRE=Country
TTITLE0=The Hollywoods Filmfestival Orchestra - The Magnificant Seven
TTITLE1=Lynn Anderson - Desperado
TTITLE2=Kenny Rogers - My Washington Woman
TTITLE3=Johnny Cash - Part of Lonely Hearts
TTITLE4=Dolly Parton - Honkytonk Angels
TTITLE5=Jerry Lee Lewis - Cold cold Heart
TTITLE6=Willy Nelson - You wouldnt cross the street to say goodbye
TTITLE7=Donna Fargo - I´ll share my world with you
TTITLE8=Waylon Jennings - Abilene
TTITLE9=Patsy Cline - Just out of Reach
TTITLE10=The Oak Ridge Boys - No one cared as much
TTITLE11=Don Williams - Spend some time with me
TTITLE12=Alabama - Patches
TTITLE13=Willy Nelson - Home is there you´re happy
TTITLE14=Lynn Anderson - You don´t have to say you love me
TTITLE15=Freddy Fender  - Before the next teardrop falls
TTITLE16=Donna Fargo - The happyest girl in the whole U.S.A
TTITLE17=Red Taylor and Bobby Rude - Home on the Range
EXTD=It´s Country Time
EXTT0=
EXTT1=
EXTT2=
EXTT3=
EXTT4=
EXTT5=
EXTT6=
EXTT7=
EXTT8=
EXTT9=
EXTT10=
EXTT11=
EXTT12=
EXTT13=
EXTT14=
EXTT15=
EXTT16=
EXTT17=
PLAYORDER=
